<svg xmlns="http://www.w3.org/2000/svg" xmlns:xlink="http://www.w3.org/1999/xlink" width="500" zoomAndPan="magnify" viewBox="0 0 375 374.999991" height="500" preserveAspectRatio="xMidYMid meet" version="1.0"><defs><g/><clipPath id="abb30ee3ae"><path d="M 132.855469 141.410156 L 242.355469 141.410156 L 242.355469 199 L 132.855469 199 Z M 132.855469 141.410156 " clip-rule="nonzero"/></clipPath></defs><rect x="-37.5" width="450" fill="#ffffff" y="-37.499999" height="449.999989" fill-opacity="1"/><rect x="-37.5" width="450" fill="#ffffff" y="-37.499999" height="449.999989" fill-opacity="1"/><g fill="#393536" fill-opacity="1"><g transform="translate(30.729692, 235.421118)"><g><path d="M 26.5625 -26.59375 L 26.5625 0 L 23.78125 0 L 23.78125 -12.28125 L 7.140625 -12.28125 L 7.140625 0 L 4.328125 0 L 4.328125 -26.59375 L 7.140625 -26.59375 L 7.140625 -14.75 L 23.78125 -14.75 L 23.78125 -26.59375 Z M 26.5625 -26.59375 "/></g></g></g><g fill="#393536" fill-opacity="1"><g transform="translate(69.21739, 235.421118)"><g><path d="M 15.953125 0.234375 C 13.328125 0.234375 10.941406 -0.351562 8.796875 -1.53125 C 6.660156 -2.71875 4.988281 -4.335938 3.78125 -6.390625 C 2.570312 -8.441406 1.96875 -10.742188 1.96875 -13.296875 C 1.96875 -15.859375 2.570312 -18.164062 3.78125 -20.21875 C 4.988281 -22.269531 6.660156 -23.882812 8.796875 -25.0625 C 10.941406 -26.238281 13.328125 -26.828125 15.953125 -26.828125 C 18.585938 -26.828125 20.960938 -26.242188 23.078125 -25.078125 C 25.203125 -23.910156 26.867188 -22.296875 28.078125 -20.234375 C 29.296875 -18.171875 29.90625 -15.859375 29.90625 -13.296875 C 29.90625 -10.742188 29.296875 -8.429688 28.078125 -6.359375 C 26.867188 -4.296875 25.203125 -2.679688 23.078125 -1.515625 C 20.960938 -0.347656 18.585938 0.234375 15.953125 0.234375 Z M 15.953125 -2.28125 C 18.054688 -2.28125 19.957031 -2.753906 21.65625 -3.703125 C 23.351562 -4.648438 24.679688 -5.96875 25.640625 -7.65625 C 26.609375 -9.34375 27.09375 -11.222656 27.09375 -13.296875 C 27.09375 -15.378906 26.609375 -17.257812 25.640625 -18.9375 C 24.679688 -20.625 23.351562 -21.941406 21.65625 -22.890625 C 19.957031 -23.835938 18.054688 -24.3125 15.953125 -24.3125 C 13.859375 -24.3125 11.953125 -23.835938 10.234375 -22.890625 C 8.523438 -21.941406 7.179688 -20.625 6.203125 -18.9375 C 5.234375 -17.257812 4.75 -15.378906 4.75 -13.296875 C 4.75 -11.222656 5.234375 -9.34375 6.203125 -7.65625 C 7.179688 -5.96875 8.523438 -4.648438 10.234375 -3.703125 C 11.953125 -2.753906 13.859375 -2.28125 15.953125 -2.28125 Z M 15.953125 -2.28125 "/></g></g></g><g fill="#393536" fill-opacity="1"><g transform="translate(108.692883, 235.421118)"><g><path d="M 31.953125 -26.59375 L 31.953125 0 L 29.265625 0 L 29.265625 -21.28125 L 18.8125 -3.375 L 17.484375 -3.375 L 7.03125 -21.171875 L 7.03125 0 L 4.328125 0 L 4.328125 -26.59375 L 6.65625 -26.59375 L 18.203125 -6.875 L 29.640625 -26.59375 Z M 31.953125 -26.59375 "/></g></g></g><g fill="#393536" fill-opacity="1"><g transform="translate(152.575479, 235.421118)"><g><path d="M 23.140625 -2.4375 L 23.140625 0 L 4.328125 0 L 4.328125 -26.59375 L 22.578125 -26.59375 L 22.578125 -24.171875 L 7.140625 -24.171875 L 7.140625 -14.703125 L 20.90625 -14.703125 L 20.90625 -12.3125 L 7.140625 -12.3125 L 7.140625 -2.4375 Z M 23.140625 -2.4375 "/></g></g></g><g fill="#393536" fill-opacity="1"><g transform="translate(185.5923, 235.421118)"><g/></g></g><g fill="#393536" fill-opacity="1"><g transform="translate(203.146277, 235.421118)"><g><path d="M 21.09375 -13.71875 C 22.84375 -13.332031 24.191406 -12.578125 25.140625 -11.453125 C 26.085938 -10.328125 26.5625 -8.878906 26.5625 -7.109375 C 26.5625 -4.828125 25.71875 -3.070312 24.03125 -1.84375 C 22.351562 -0.613281 19.863281 0 16.5625 0 L 4.328125 0 L 4.328125 -26.59375 L 15.8125 -26.59375 C 18.769531 -26.59375 21.066406 -26 22.703125 -24.8125 C 24.335938 -23.625 25.15625 -21.941406 25.15625 -19.765625 C 25.15625 -18.296875 24.789062 -17.046875 24.0625 -16.015625 C 23.34375 -14.992188 22.351562 -14.226562 21.09375 -13.71875 Z M 7.140625 -24.28125 L 7.140625 -14.625 L 15.625 -14.625 C 17.769531 -14.625 19.425781 -15.035156 20.59375 -15.859375 C 21.757812 -16.679688 22.34375 -17.878906 22.34375 -19.453125 C 22.34375 -21.023438 21.757812 -22.222656 20.59375 -23.046875 C 19.425781 -23.867188 17.769531 -24.28125 15.625 -24.28125 Z M 16.53125 -2.3125 C 18.914062 -2.3125 20.710938 -2.71875 21.921875 -3.53125 C 23.140625 -4.34375 23.75 -5.609375 23.75 -7.328125 C 23.75 -10.648438 21.34375 -12.3125 16.53125 -12.3125 L 7.140625 -12.3125 L 7.140625 -2.3125 Z M 16.53125 -2.3125 "/></g></g></g><g fill="#393536" fill-opacity="1"><g transform="translate(239.392437, 235.421118)"><g><path d="M 4.328125 -26.59375 L 7.140625 -26.59375 L 7.140625 0 L 4.328125 0 Z M 4.328125 -26.59375 "/></g></g></g><g fill="#393536" fill-opacity="1"><g transform="translate(258.466097, 235.421118)"><g><path d="M 9.5 -24.171875 L 0.15625 -24.171875 L 0.15625 -26.59375 L 21.65625 -26.59375 L 21.65625 -24.171875 L 12.3125 -24.171875 L 12.3125 0 L 9.5 0 Z M 9.5 -24.171875 "/></g></g></g><g fill="#393536" fill-opacity="1"><g transform="translate(287.873635, 235.421118)"><g><path d="M 23.140625 -2.4375 L 23.140625 0 L 4.328125 0 L 4.328125 -26.59375 L 22.578125 -26.59375 L 22.578125 -24.171875 L 7.140625 -24.171875 L 7.140625 -14.703125 L 20.90625 -14.703125 L 20.90625 -12.3125 L 7.140625 -12.3125 L 7.140625 -2.4375 Z M 23.140625 -2.4375 "/></g></g></g><g fill="#393536" fill-opacity="1"><g transform="translate(320.890455, 235.421118)"><g><path d="M 11.671875 0.234375 C 9.691406 0.234375 7.796875 -0.0820312 5.984375 -0.71875 C 4.171875 -1.351562 2.769531 -2.191406 1.78125 -3.234375 L 2.890625 -5.390625 C 3.847656 -4.429688 5.125 -3.65625 6.71875 -3.0625 C 8.320312 -2.46875 9.972656 -2.171875 11.671875 -2.171875 C 14.046875 -2.171875 15.828125 -2.601562 17.015625 -3.46875 C 18.210938 -4.34375 18.8125 -5.476562 18.8125 -6.875 C 18.8125 -7.9375 18.488281 -8.785156 17.84375 -9.421875 C 17.195312 -10.054688 16.40625 -10.546875 15.46875 -10.890625 C 14.53125 -11.234375 13.222656 -11.609375 11.546875 -12.015625 C 9.546875 -12.515625 7.953125 -13 6.765625 -13.46875 C 5.578125 -13.9375 4.554688 -14.648438 3.703125 -15.609375 C 2.859375 -16.578125 2.4375 -17.882812 2.4375 -19.53125 C 2.4375 -20.875 2.789062 -22.097656 3.5 -23.203125 C 4.207031 -24.304688 5.296875 -25.1875 6.765625 -25.84375 C 8.234375 -26.5 10.054688 -26.828125 12.234375 -26.828125 C 13.753906 -26.828125 15.242188 -26.617188 16.703125 -26.203125 C 18.160156 -25.785156 19.421875 -25.207031 20.484375 -24.46875 L 19.53125 -22.234375 C 18.414062 -22.960938 17.222656 -23.507812 15.953125 -23.875 C 14.691406 -24.25 13.453125 -24.4375 12.234375 -24.4375 C 9.898438 -24.4375 8.144531 -23.984375 6.96875 -23.078125 C 5.789062 -22.179688 5.203125 -21.023438 5.203125 -19.609375 C 5.203125 -18.546875 5.523438 -17.691406 6.171875 -17.046875 C 6.816406 -16.398438 7.625 -15.90625 8.59375 -15.5625 C 9.570312 -15.21875 10.890625 -14.84375 12.546875 -14.4375 C 14.492188 -13.957031 16.066406 -13.484375 17.265625 -13.015625 C 18.472656 -12.546875 19.492188 -11.835938 20.328125 -10.890625 C 21.160156 -9.941406 21.578125 -8.65625 21.578125 -7.03125 C 21.578125 -5.6875 21.21875 -4.460938 20.5 -3.359375 C 19.78125 -2.253906 18.671875 -1.378906 17.171875 -0.734375 C 15.679688 -0.0859375 13.847656 0.234375 11.671875 0.234375 Z M 11.671875 0.234375 "/></g></g></g><g fill="#393536" fill-opacity="1"><g transform="translate(126.422934, 255.841711)"><g><path d="M 2.40625 -8.125 L 2.40625 -4.609375 L 7.03125 -4.609375 L 7.03125 -3.796875 L 2.40625 -3.796875 L 2.40625 0 L 1.453125 0 L 1.453125 -8.953125 L 7.59375 -8.953125 L 7.59375 -8.125 Z M 2.40625 -8.125 "/></g></g></g><g fill="#393536" fill-opacity="1"><g transform="translate(137.074786, 255.841711)"><g><path d="M 7.78125 -0.8125 L 7.78125 0 L 1.453125 0 L 1.453125 -8.953125 L 7.59375 -8.953125 L 7.59375 -8.125 L 2.40625 -8.125 L 2.40625 -4.953125 L 7.03125 -4.953125 L 7.03125 -4.140625 L 2.40625 -4.140625 L 2.40625 -0.8125 Z M 7.78125 -0.8125 "/></g></g></g><g fill="#393536" fill-opacity="1"><g transform="translate(148.186897, 255.841711)"><g><path d="M 7.78125 -0.8125 L 7.78125 0 L 1.453125 0 L 1.453125 -8.953125 L 7.59375 -8.953125 L 7.59375 -8.125 L 2.40625 -8.125 L 2.40625 -4.953125 L 7.03125 -4.953125 L 7.03125 -4.140625 L 2.40625 -4.140625 L 2.40625 -0.8125 Z M 7.78125 -0.8125 "/></g></g></g><g fill="#393536" fill-opacity="1"><g transform="translate(159.29901, 255.841711)"><g><path d="M 1.453125 -8.953125 L 2.40625 -8.953125 L 2.40625 -0.8125 L 7.40625 -0.8125 L 7.40625 0 L 1.453125 0 Z M 1.453125 -8.953125 "/></g></g></g><g fill="#393536" fill-opacity="1"><g transform="translate(169.388303, 255.841711)"><g/></g></g><g fill="#393536" fill-opacity="1"><g transform="translate(175.296842, 255.841711)"><g><path d="M 7.0625 -2.390625 L 2.078125 -2.390625 L 1.015625 0 L 0.03125 0 L 4.109375 -8.953125 L 5.046875 -8.953125 L 9.140625 0 L 8.140625 0 Z M 6.71875 -3.15625 L 4.578125 -7.96875 L 2.421875 -3.15625 Z M 6.71875 -3.15625 "/></g></g></g><g fill="#393536" fill-opacity="1"><g transform="translate(187.022641, 255.841711)"><g><path d="M 3.1875 -8.125 L 0.046875 -8.125 L 0.046875 -8.953125 L 7.28125 -8.953125 L 7.28125 -8.125 L 4.140625 -8.125 L 4.140625 0 L 3.1875 0 Z M 3.1875 -8.125 "/></g></g></g><g fill="#393536" fill-opacity="1"><g transform="translate(196.920166, 255.841711)"><g/></g></g><g fill="#393536" fill-opacity="1"><g transform="translate(202.828704, 255.841711)"><g><path d="M 8.9375 -8.953125 L 8.9375 0 L 8 0 L 8 -4.125 L 2.40625 -4.125 L 2.40625 0 L 1.453125 0 L 1.453125 -8.953125 L 2.40625 -8.953125 L 2.40625 -4.953125 L 8 -4.953125 L 8 -8.953125 Z M 8.9375 -8.953125 "/></g></g></g><g fill="#393536" fill-opacity="1"><g transform="translate(215.781882, 255.841711)"><g><path d="M 5.375 0.078125 C 4.476562 0.078125 3.671875 -0.117188 2.953125 -0.515625 C 2.234375 -0.910156 1.671875 -1.453125 1.265625 -2.140625 C 0.867188 -2.835938 0.671875 -3.613281 0.671875 -4.46875 C 0.671875 -5.332031 0.867188 -6.109375 1.265625 -6.796875 C 1.671875 -7.484375 2.234375 -8.023438 2.953125 -8.421875 C 3.671875 -8.828125 4.476562 -9.03125 5.375 -9.03125 C 6.257812 -9.03125 7.054688 -8.832031 7.765625 -8.4375 C 8.472656 -8.039062 9.03125 -7.492188 9.4375 -6.796875 C 9.851562 -6.109375 10.0625 -5.332031 10.0625 -4.46875 C 10.0625 -3.613281 9.851562 -2.835938 9.4375 -2.140625 C 9.03125 -1.441406 8.472656 -0.894531 7.765625 -0.5 C 7.054688 -0.113281 6.257812 0.078125 5.375 0.078125 Z M 5.375 -0.765625 C 6.070312 -0.765625 6.707031 -0.921875 7.28125 -1.234375 C 7.851562 -1.554688 8.300781 -2 8.625 -2.5625 C 8.945312 -3.132812 9.109375 -3.769531 9.109375 -4.46875 C 9.109375 -5.164062 8.945312 -5.796875 8.625 -6.359375 C 8.300781 -6.929688 7.851562 -7.378906 7.28125 -7.703125 C 6.707031 -8.023438 6.070312 -8.1875 5.375 -8.1875 C 4.664062 -8.1875 4.019531 -8.023438 3.4375 -7.703125 C 2.863281 -7.378906 2.410156 -6.929688 2.078125 -6.359375 C 1.753906 -5.796875 1.59375 -5.164062 1.59375 -4.46875 C 1.59375 -3.769531 1.753906 -3.132812 2.078125 -2.5625 C 2.410156 -2 2.863281 -1.554688 3.4375 -1.234375 C 4.019531 -0.921875 4.664062 -0.765625 5.375 -0.765625 Z M 5.375 -0.765625 "/></g></g></g><g fill="#393536" fill-opacity="1"><g transform="translate(229.067482, 255.841711)"><g><path d="M 10.75 -8.953125 L 10.75 0 L 9.84375 0 L 9.84375 -7.15625 L 6.328125 -1.140625 L 5.875 -1.140625 L 2.359375 -7.125 L 2.359375 0 L 1.453125 0 L 1.453125 -8.953125 L 2.234375 -8.953125 L 6.125 -2.3125 L 9.96875 -8.953125 Z M 10.75 -8.953125 "/></g></g></g><g fill="#393536" fill-opacity="1"><g transform="translate(243.836161, 255.841711)"><g><path d="M 7.78125 -0.8125 L 7.78125 0 L 1.453125 0 L 1.453125 -8.953125 L 7.59375 -8.953125 L 7.59375 -8.125 L 2.40625 -8.125 L 2.40625 -4.953125 L 7.03125 -4.953125 L 7.03125 -4.140625 L 2.40625 -4.140625 L 2.40625 -0.8125 Z M 7.78125 -0.8125 "/></g></g></g><g clip-path="url(#abb30ee3ae)"><path fill="#ff6600" d="M 218.757812 146.539062 C 215.613281 143.390625 211.429688 141.660156 206.980469 141.660156 C 202.535156 141.660156 198.351562 143.390625 195.207031 146.539062 L 191.472656 150.269531 L 201.347656 160.144531 C 205.476562 158.203125 211.152344 159.445312 215.253906 163.546875 C 220.234375 168.527344 221.003906 175.835938 216.972656 179.867188 C 212.941406 183.898438 205.632812 183.128906 200.652344 178.148438 C 196.441406 173.9375 195.242188 168.0625 197.414062 163.910156 L 179.792969 146.289062 C 176.644531 143.144531 172.464844 141.410156 168.015625 141.410156 C 163.566406 141.410156 159.382812 143.144531 156.238281 146.289062 L 132.898438 169.628906 L 156.238281 192.96875 C 162.730469 199.464844 173.296875 199.460938 179.792969 192.96875 L 183.578125 189.179688 L 174.433594 179.992188 L 164.847656 181.296875 C 164.726562 181.3125 164.605469 181.324219 164.480469 181.324219 C 163.757812 181.324219 163.066406 181.035156 162.554688 180.527344 L 151.5625 168.046875 L 154.175781 165.433594 L 163.40625 173.671875 C 164 174.265625 164.964844 174.265625 165.558594 173.671875 L 165.785156 173.445312 C 166.375 172.851562 166.378906 171.890625 165.785156 171.296875 L 157.558594 162.035156 L 160.429688 159.183594 L 169.632812 167.441406 C 170.226562 168.039062 171.191406 168.039062 171.785156 167.441406 C 172.378906 166.847656 172.378906 165.886719 171.785156 165.292969 L 163.542969 156.058594 L 166.15625 153.445312 L 178.636719 164.441406 C 179.25 165.050781 179.507812 165.878906 179.417969 166.675781 L 178.328125 176.183594 L 195.226562 193.167969 C 198.339844 196.296875 202.578125 198.058594 206.996094 198.058594 L 207.019531 198.058594 C 211.464844 198.058594 215.648438 196.328125 218.792969 193.179688 L 242.097656 169.878906 Z M 218.757812 146.539062 " fill-opacity="1" fill-rule="nonzero"/></g><path fill="#ff6600" d="M 198.714844 165.210938 C 197.1875 168.757812 198.441406 173.488281 201.878906 176.925781 C 204.289062 179.335938 207.386719 180.71875 210.375 180.71875 C 211.546875 180.71875 212.628906 180.503906 213.59375 180.09375 C 204.199219 181.21875 199.058594 171.605469 200.5 167 Z M 198.714844 165.210938 " fill-opacity="1" fill-rule="nonzero"/></svg>