<svg xmlns="http://www.w3.org/2000/svg" xmlns:xlink="http://www.w3.org/1999/xlink" width="500" zoomAndPan="magnify" viewBox="0 0 375 374.999991" height="500" preserveAspectRatio="xMidYMid meet" version="1.0"><defs><g/><clipPath id="cf9c9dec66"><path d="M 144.496094 116.695312 L 230.621094 116.695312 L 230.621094 199.542969 L 144.496094 199.542969 Z M 144.496094 116.695312 " clip-rule="nonzero"/></clipPath><clipPath id="b48eeb6d0f"><path d="M 166.832031 116.871094 L 166.832031 199.371094 C 167.074219 199.386719 167.316406 199.386719 167.558594 199.386719 L 207.304688 199.386719 L 207.304688 116.871094 Z M 213.523438 116.871094 L 207.304688 116.871094 L 207.304688 199.371094 L 207.441406 199.371094 C 217.496094 199.371094 226.324219 191.164062 227.050781 181.144531 L 230.453125 135.078125 C 231.195312 125.074219 223.578125 116.871094 213.523438 116.871094 Z M 161.476562 116.871094 C 151.421875 116.871094 143.804688 125.074219 144.546875 135.09375 L 147.949219 181.164062 C 148.675781 190.941406 157.105469 198.988281 166.847656 199.371094 L 166.847656 116.871094 Z M 161.476562 116.871094 " clip-rule="nonzero"/></clipPath><clipPath id="6d1e20a0a3"><path d="M 147.640625 119.722656 L 227.46875 119.722656 L 227.46875 196.515625 L 147.640625 196.515625 Z M 147.640625 119.722656 " clip-rule="nonzero"/></clipPath><clipPath id="75dbafa5aa"><path d="M 168.34375 119.882812 L 168.34375 196.355469 C 168.566406 196.371094 168.789062 196.371094 169.015625 196.371094 L 205.855469 196.371094 L 205.855469 119.882812 Z M 211.621094 119.882812 L 205.855469 119.882812 L 205.855469 196.355469 L 205.984375 196.355469 C 215.304688 196.355469 223.484375 188.75 224.160156 179.464844 L 227.3125 136.761719 C 228 127.488281 220.941406 119.882812 211.621094 119.882812 Z M 163.378906 119.882812 C 154.058594 119.882812 147 127.488281 147.6875 136.777344 L 150.839844 179.480469 C 151.515625 188.542969 159.328125 196.003906 168.359375 196.355469 L 168.359375 119.882812 Z M 163.378906 119.882812 " clip-rule="nonzero"/></clipPath><clipPath id="456ee22e64"><path d="M 149.558594 121.574219 L 225.546875 121.574219 L 225.546875 194.667969 L 149.558594 194.667969 Z M 149.558594 121.574219 " clip-rule="nonzero"/></clipPath><clipPath id="a093c4b4f0"><path d="M 169.265625 121.726562 L 169.265625 194.515625 C 169.476562 194.53125 169.691406 194.53125 169.90625 194.53125 L 204.972656 194.53125 L 204.972656 121.726562 Z M 210.460938 121.726562 L 204.972656 121.726562 L 204.972656 194.515625 L 205.09375 194.515625 C 213.964844 194.515625 221.753906 187.273438 222.394531 178.4375 L 225.394531 137.789062 C 226.050781 128.964844 219.332031 121.726562 210.460938 121.726562 Z M 164.539062 121.726562 C 155.667969 121.726562 148.949219 128.964844 149.605469 137.804688 L 152.605469 178.449219 C 153.246094 187.078125 160.683594 194.179688 169.28125 194.515625 L 169.28125 121.726562 Z M 164.539062 121.726562 " clip-rule="nonzero"/></clipPath><clipPath id="92ded4fa7a"><path d="M 164.171875 152.457031 L 176.730469 152.457031 L 176.730469 161.425781 L 164.171875 161.425781 Z M 164.171875 152.457031 " clip-rule="nonzero"/></clipPath><clipPath id="7801eb7d94"><path d="M 164.253906 160.664062 C 164.199219 160.277344 164.171875 159.890625 164.171875 159.507812 C 164.171875 155.636719 166.953125 152.457031 170.449219 152.457031 C 173.949219 152.457031 176.730469 155.636719 176.730469 159.507812 C 176.730469 159.890625 176.703125 160.277344 176.648438 160.664062 C 176.5 161.6875 175.019531 161.6875 174.875 160.664062 C 174.503906 158.140625 172.617188 156.304688 170.449219 156.304688 C 168.285156 156.304688 166.398438 158.140625 166.027344 160.664062 C 165.882812 161.6875 164.402344 161.6875 164.253906 160.664062 Z M 164.253906 160.664062 " clip-rule="nonzero"/></clipPath><clipPath id="d601b56353"><path d="M 198.261719 152.457031 L 210.636719 152.457031 L 210.636719 161.425781 L 198.261719 161.425781 Z M 198.261719 152.457031 " clip-rule="nonzero"/></clipPath><clipPath id="8af26caa03"><path d="M 198.347656 160.664062 C 198.289062 160.277344 198.261719 159.890625 198.261719 159.507812 C 198.261719 155.636719 201.042969 152.457031 204.542969 152.457031 C 208.039062 152.457031 210.820312 155.636719 210.820312 159.507812 C 210.820312 159.890625 210.792969 160.277344 210.738281 160.664062 C 210.589844 161.6875 209.113281 161.6875 208.964844 160.664062 C 208.59375 158.140625 206.707031 156.304688 204.542969 156.304688 C 202.375 156.304688 200.492188 158.140625 200.121094 160.664062 C 199.972656 161.6875 198.492188 161.6875 198.347656 160.664062 Z M 198.347656 160.664062 " clip-rule="nonzero"/></clipPath><clipPath id="f0353fb242"><path d="M 169 163.222656 L 206 163.222656 L 206 184.707031 L 169 184.707031 Z M 169 163.222656 " clip-rule="nonzero"/></clipPath><clipPath id="1a0cbfbe0d"><path d="M 192.578125 178.773438 C 193.480469 176.460938 193.769531 173.546875 193.410156 170.007812 C 193.355469 169.472656 193.375 168.941406 193.46875 168.421875 C 194.015625 165.191406 197.078125 163.019531 200.300781 163.570312 C 200.765625 163.648438 201.21875 163.773438 201.65625 163.949219 C 204.421875 165.042969 206.117188 167.828125 205.867188 170.757812 L 205.84375 170.890625 C 205.789062 171.121094 205.726562 171.351562 205.648438 171.574219 C 205.640625 171.640625 205.628906 171.703125 205.605469 171.765625 C 203.308594 179.40625 195.949219 184.753906 187.496094 184.753906 C 179.042969 184.753906 171.683594 179.40625 169.386719 171.765625 C 169.085938 170.769531 170.4375 170.144531 170.996094 171.023438 C 174.292969 176.125 180.550781 179.371094 187.496094 179.371094 C 189.242188 179.371094 190.953125 179.167969 192.578125 178.773438 Z M 200.996094 165.613281 C 200.671875 165.484375 200.34375 165.394531 200 165.339844 C 197.75 164.953125 195.621094 166.464844 195.234375 168.714844 C 195.171875 169.089844 195.15625 169.460938 195.199219 169.824219 C 195.726562 175.09375 194.917969 179.230469 192.738281 182.179688 C 198.351562 180.464844 202.710938 176.046875 204.085938 170.53125 C 204.242188 168.414062 203 166.410156 200.996094 165.613281 Z M 200.996094 165.613281 " clip-rule="nonzero"/></clipPath></defs><rect x="-37.5" width="450" fill="#ffffff" y="-37.499999" height="449.999989" fill-opacity="1"/><rect x="-37.5" width="450" fill="#ffffff" y="-37.499999" height="449.999989" fill-opacity="1"/><g clip-path="url(#cf9c9dec66)"><g clip-path="url(#b48eeb6d0f)"><path fill="#cc5803" d="M 144.496094 116.871094 L 230.449219 116.871094 L 230.449219 199.371094 L 144.496094 199.371094 Z M 144.496094 116.871094 " fill-opacity="1" fill-rule="nonzero"/></g></g><g clip-path="url(#6d1e20a0a3)"><g clip-path="url(#75dbafa5aa)"><path fill="#ffffff" d="M 147.640625 119.882812 L 227.308594 119.882812 L 227.308594 196.355469 L 147.640625 196.355469 Z M 147.640625 119.882812 " fill-opacity="1" fill-rule="nonzero"/></g></g><g clip-path="url(#456ee22e64)"><g clip-path="url(#a093c4b4f0)"><path fill="#ff6600" d="M 149.558594 121.726562 L 225.394531 121.726562 L 225.394531 194.515625 L 149.558594 194.515625 Z M 149.558594 121.726562 " fill-opacity="1" fill-rule="nonzero"/></g></g><g clip-path="url(#92ded4fa7a)"><g clip-path="url(#7801eb7d94)"><path fill="#ffffff" d="M 155.199219 170.398438 L 185.703125 170.398438 L 185.703125 143.484375 L 155.199219 143.484375 Z M 155.199219 170.398438 " fill-opacity="1" fill-rule="nonzero"/></g></g><g clip-path="url(#d601b56353)"><g clip-path="url(#8af26caa03)"><path fill="#ffffff" d="M 189.289062 170.398438 L 219.792969 170.398438 L 219.792969 143.484375 L 189.289062 143.484375 Z M 189.289062 170.398438 " fill-opacity="1" fill-rule="nonzero"/></g></g><g clip-path="url(#f0353fb242)"><g clip-path="url(#1a0cbfbe0d)"><path fill="#ffffff" d="M 160.371094 193.722656 L 214.867188 193.722656 L 214.867188 154.507812 L 160.371094 154.507812 Z M 160.371094 193.722656 " fill-opacity="1" fill-rule="nonzero"/></g></g><g fill="#cc5803" fill-opacity="1"><g transform="translate(139.55306, 254.850922)"><g><path d="M 5.84375 -7.421875 L 2.40625 -7.421875 L 2.40625 -4.671875 L 5.40625 -4.671875 L 5.40625 -3.71875 L 2.40625 -3.71875 L 2.40625 0 L 1.3125 0 L 1.3125 -8.390625 L 5.84375 -8.390625 Z M 5.84375 -7.421875 "/></g></g></g><g fill="#cc5803" fill-opacity="1"><g transform="translate(145.884984, 254.850922)"><g><path d="M 3.515625 0.125 C 3.097656 0.125 2.707031 0.0546875 2.34375 -0.078125 C 1.988281 -0.222656 1.675781 -0.429688 1.40625 -0.703125 C 1.144531 -0.972656 0.9375 -1.296875 0.78125 -1.671875 C 0.632812 -2.046875 0.5625 -2.46875 0.5625 -2.9375 C 0.5625 -3.394531 0.632812 -3.8125 0.78125 -4.1875 C 0.925781 -4.5625 1.132812 -4.878906 1.40625 -5.140625 C 1.675781 -5.410156 1.988281 -5.613281 2.34375 -5.75 C 2.707031 -5.894531 3.097656 -5.96875 3.515625 -5.96875 C 3.941406 -5.96875 4.332031 -5.894531 4.6875 -5.75 C 5.039062 -5.613281 5.351562 -5.410156 5.625 -5.140625 C 5.894531 -4.878906 6.101562 -4.5625 6.25 -4.1875 C 6.394531 -3.8125 6.46875 -3.394531 6.46875 -2.9375 C 6.46875 -2.46875 6.394531 -2.046875 6.25 -1.671875 C 6.101562 -1.296875 5.894531 -0.972656 5.625 -0.703125 C 5.351562 -0.429688 5.035156 -0.222656 4.671875 -0.078125 C 4.316406 0.0546875 3.929688 0.125 3.515625 0.125 Z M 3.515625 -0.75 C 3.878906 -0.75 4.207031 -0.835938 4.5 -1.015625 C 4.789062 -1.191406 5.019531 -1.441406 5.1875 -1.765625 C 5.363281 -2.097656 5.453125 -2.488281 5.453125 -2.9375 C 5.453125 -3.375 5.363281 -3.753906 5.1875 -4.078125 C 5.019531 -4.410156 4.789062 -4.664062 4.5 -4.84375 C 4.207031 -5.019531 3.878906 -5.109375 3.515625 -5.109375 C 3.148438 -5.109375 2.820312 -5.019531 2.53125 -4.84375 C 2.238281 -4.664062 2.007812 -4.410156 1.84375 -4.078125 C 1.675781 -3.753906 1.59375 -3.375 1.59375 -2.9375 C 1.59375 -2.488281 1.675781 -2.097656 1.84375 -1.765625 C 2.007812 -1.441406 2.238281 -1.191406 2.53125 -1.015625 C 2.820312 -0.835938 3.148438 -0.75 3.515625 -0.75 Z M 3.515625 -0.75 "/></g></g></g><g fill="#cc5803" fill-opacity="1"><g transform="translate(152.91383, 254.850922)"><g><path d="M 3.515625 0.125 C 3.097656 0.125 2.707031 0.0546875 2.34375 -0.078125 C 1.988281 -0.222656 1.675781 -0.429688 1.40625 -0.703125 C 1.144531 -0.972656 0.9375 -1.296875 0.78125 -1.671875 C 0.632812 -2.046875 0.5625 -2.46875 0.5625 -2.9375 C 0.5625 -3.394531 0.632812 -3.8125 0.78125 -4.1875 C 0.925781 -4.5625 1.132812 -4.878906 1.40625 -5.140625 C 1.675781 -5.410156 1.988281 -5.613281 2.34375 -5.75 C 2.707031 -5.894531 3.097656 -5.96875 3.515625 -5.96875 C 3.941406 -5.96875 4.332031 -5.894531 4.6875 -5.75 C 5.039062 -5.613281 5.351562 -5.410156 5.625 -5.140625 C 5.894531 -4.878906 6.101562 -4.5625 6.25 -4.1875 C 6.394531 -3.8125 6.46875 -3.394531 6.46875 -2.9375 C 6.46875 -2.46875 6.394531 -2.046875 6.25 -1.671875 C 6.101562 -1.296875 5.894531 -0.972656 5.625 -0.703125 C 5.351562 -0.429688 5.035156 -0.222656 4.671875 -0.078125 C 4.316406 0.0546875 3.929688 0.125 3.515625 0.125 Z M 3.515625 -0.75 C 3.878906 -0.75 4.207031 -0.835938 4.5 -1.015625 C 4.789062 -1.191406 5.019531 -1.441406 5.1875 -1.765625 C 5.363281 -2.097656 5.453125 -2.488281 5.453125 -2.9375 C 5.453125 -3.375 5.363281 -3.753906 5.1875 -4.078125 C 5.019531 -4.410156 4.789062 -4.664062 4.5 -4.84375 C 4.207031 -5.019531 3.878906 -5.109375 3.515625 -5.109375 C 3.148438 -5.109375 2.820312 -5.019531 2.53125 -4.84375 C 2.238281 -4.664062 2.007812 -4.410156 1.84375 -4.078125 C 1.675781 -3.753906 1.59375 -3.375 1.59375 -2.9375 C 1.59375 -2.488281 1.675781 -2.097656 1.84375 -1.765625 C 2.007812 -1.441406 2.238281 -1.191406 2.53125 -1.015625 C 2.820312 -0.835938 3.148438 -0.75 3.515625 -0.75 Z M 3.515625 -0.75 "/></g></g></g><g fill="#cc5803" fill-opacity="1"><g transform="translate(159.942676, 254.850922)"><g><path d="M 5.375 -9.15625 L 6.40625 -9.15625 L 6.40625 0 L 5.40625 0 L 5.390625 -1.140625 C 5.265625 -0.878906 5.097656 -0.65625 4.890625 -0.46875 C 4.679688 -0.28125 4.441406 -0.132812 4.171875 -0.03125 C 3.898438 0.0703125 3.613281 0.125 3.3125 0.125 C 2.9375 0.125 2.582031 0.0546875 2.25 -0.078125 C 1.914062 -0.222656 1.625 -0.429688 1.375 -0.703125 C 1.125 -0.972656 0.925781 -1.296875 0.78125 -1.671875 C 0.644531 -2.046875 0.578125 -2.460938 0.578125 -2.921875 C 0.578125 -3.378906 0.644531 -3.796875 0.78125 -4.171875 C 0.925781 -4.554688 1.125 -4.878906 1.375 -5.140625 C 1.625 -5.410156 1.914062 -5.613281 2.25 -5.75 C 2.582031 -5.894531 2.9375 -5.96875 3.3125 -5.96875 C 3.613281 -5.96875 3.894531 -5.914062 4.15625 -5.8125 C 4.425781 -5.71875 4.664062 -5.578125 4.875 -5.390625 C 5.082031 -5.210938 5.25 -5 5.375 -4.75 Z M 3.53125 -0.765625 C 3.800781 -0.765625 4.050781 -0.816406 4.28125 -0.921875 C 4.507812 -1.035156 4.707031 -1.1875 4.875 -1.375 C 5.050781 -1.570312 5.1875 -1.800781 5.28125 -2.0625 C 5.382812 -2.320312 5.4375 -2.609375 5.4375 -2.921875 C 5.4375 -3.234375 5.382812 -3.519531 5.28125 -3.78125 C 5.1875 -4.039062 5.050781 -4.269531 4.875 -4.46875 C 4.707031 -4.664062 4.503906 -4.816406 4.265625 -4.921875 C 4.035156 -5.023438 3.789062 -5.078125 3.53125 -5.078125 C 3.175781 -5.078125 2.851562 -4.988281 2.5625 -4.8125 C 2.269531 -4.632812 2.035156 -4.382812 1.859375 -4.0625 C 1.691406 -3.738281 1.609375 -3.359375 1.609375 -2.921875 C 1.609375 -2.492188 1.691406 -2.117188 1.859375 -1.796875 C 2.035156 -1.472656 2.269531 -1.21875 2.5625 -1.03125 C 2.851562 -0.851562 3.175781 -0.765625 3.53125 -0.765625 Z M 3.53125 -0.765625 "/></g></g></g><g fill="#cc5803" fill-opacity="1"><g transform="translate(167.394451, 254.850922)"><g/></g></g><g fill="#cc5803" fill-opacity="1"><g transform="translate(170.563388, 254.850922)"><g><path d="M 8.203125 -5.859375 L 9.296875 -5.859375 L 7.265625 0 L 6.328125 0 L 4.75 -4.515625 L 3.15625 0 L 2.21875 0 L 0.234375 -5.859375 L 1.3125 -5.859375 L 2.75 -1.375 L 4.34375 -5.859375 L 5.140625 -5.859375 L 6.734375 -1.359375 Z M 8.203125 -5.859375 "/></g></g></g><g fill="#cc5803" fill-opacity="1"><g transform="translate(180.076163, 254.850922)"><g><path d="M 1.578125 -7.234375 C 1.441406 -7.234375 1.320312 -7.265625 1.21875 -7.328125 C 1.113281 -7.390625 1.03125 -7.472656 0.96875 -7.578125 C 0.90625 -7.679688 0.875 -7.800781 0.875 -7.9375 C 0.875 -8.0625 0.90625 -8.175781 0.96875 -8.28125 C 1.03125 -8.382812 1.113281 -8.46875 1.21875 -8.53125 C 1.320312 -8.59375 1.441406 -8.625 1.578125 -8.625 C 1.703125 -8.625 1.816406 -8.59375 1.921875 -8.53125 C 2.023438 -8.46875 2.109375 -8.382812 2.171875 -8.28125 C 2.234375 -8.175781 2.265625 -8.0625 2.265625 -7.9375 C 2.265625 -7.800781 2.234375 -7.679688 2.171875 -7.578125 C 2.109375 -7.472656 2.023438 -7.390625 1.921875 -7.328125 C 1.816406 -7.265625 1.703125 -7.234375 1.578125 -7.234375 Z M 1.046875 0 L 1.046875 -5.859375 L 2.078125 -5.859375 L 2.078125 0 Z M 1.046875 0 "/></g></g></g><g fill="#cc5803" fill-opacity="1"><g transform="translate(183.20936, 254.850922)"><g><path d="M 2.921875 0 C 2.441406 0 2.0625 -0.132812 1.78125 -0.40625 C 1.5 -0.6875 1.359375 -1.082031 1.359375 -1.59375 L 1.359375 -5.03125 L 0.15625 -5.03125 L 0.15625 -5.859375 L 0.609375 -5.859375 C 0.910156 -5.859375 1.125 -5.925781 1.25 -6.0625 C 1.375 -6.195312 1.4375 -6.425781 1.4375 -6.75 L 1.4375 -7.8125 L 2.390625 -7.8125 L 2.390625 -5.859375 L 3.734375 -5.859375 L 3.734375 -5.03125 L 2.390625 -5.03125 L 2.390625 -1.703125 C 2.390625 -1.410156 2.46875 -1.191406 2.625 -1.046875 C 2.78125 -0.898438 2.972656 -0.828125 3.203125 -0.828125 L 3.734375 -0.828125 L 3.734375 0 Z M 2.921875 0 "/></g></g></g><g fill="#cc5803" fill-opacity="1"><g transform="translate(187.390928, 254.850922)"><g><path d="M 3.84375 -5.96875 C 4.238281 -5.96875 4.582031 -5.890625 4.875 -5.734375 C 5.175781 -5.578125 5.410156 -5.34375 5.578125 -5.03125 C 5.753906 -4.71875 5.84375 -4.332031 5.84375 -3.875 L 5.84375 0 L 4.8125 0 L 4.8125 -3.671875 C 4.8125 -4.015625 4.75 -4.289062 4.625 -4.5 C 4.507812 -4.71875 4.351562 -4.867188 4.15625 -4.953125 C 3.96875 -5.046875 3.757812 -5.09375 3.53125 -5.09375 C 3.269531 -5.09375 3.03125 -5.035156 2.8125 -4.921875 C 2.59375 -4.816406 2.414062 -4.644531 2.28125 -4.40625 C 2.144531 -4.175781 2.078125 -3.875 2.078125 -3.5 L 2.078125 0 L 1.046875 0 L 1.046875 -9.15625 L 2.078125 -9.15625 L 2.078125 -5.078125 C 2.265625 -5.359375 2.507812 -5.578125 2.8125 -5.734375 C 3.113281 -5.890625 3.457031 -5.96875 3.84375 -5.96875 Z M 3.84375 -5.96875 "/></g></g></g><g fill="#cc5803" fill-opacity="1"><g transform="translate(194.163644, 254.850922)"><g/></g></g><g fill="#cc5803" fill-opacity="1"><g transform="translate(197.332582, 254.850922)"><g><path d="M 2.40625 0.109375 C 2.082031 0.109375 1.785156 0.0546875 1.515625 -0.046875 C 1.242188 -0.160156 1.023438 -0.332031 0.859375 -0.5625 C 0.691406 -0.800781 0.609375 -1.109375 0.609375 -1.484375 C 0.609375 -1.796875 0.664062 -2.054688 0.78125 -2.265625 C 0.894531 -2.472656 1.050781 -2.644531 1.25 -2.78125 C 1.445312 -2.914062 1.679688 -3.023438 1.953125 -3.109375 C 2.222656 -3.203125 2.515625 -3.273438 2.828125 -3.328125 L 3.78125 -3.484375 C 4.125 -3.546875 4.296875 -3.726562 4.296875 -4.03125 C 4.296875 -4.3125 4.234375 -4.535156 4.109375 -4.703125 C 3.992188 -4.867188 3.835938 -4.988281 3.640625 -5.0625 C 3.441406 -5.132812 3.226562 -5.171875 3 -5.171875 C 2.769531 -5.171875 2.554688 -5.132812 2.359375 -5.0625 C 2.171875 -4.988281 2.015625 -4.875 1.890625 -4.71875 C 1.765625 -4.5625 1.6875 -4.351562 1.65625 -4.09375 L 0.71875 -4.28125 C 0.8125 -4.851562 1.0625 -5.273438 1.46875 -5.546875 C 1.875 -5.816406 2.398438 -5.953125 3.046875 -5.953125 C 3.335938 -5.953125 3.617188 -5.914062 3.890625 -5.84375 C 4.160156 -5.78125 4.398438 -5.671875 4.609375 -5.515625 C 4.816406 -5.367188 4.984375 -5.164062 5.109375 -4.90625 C 5.234375 -4.644531 5.296875 -4.320312 5.296875 -3.9375 L 5.296875 -1.515625 C 5.296875 -1.304688 5.316406 -1.144531 5.359375 -1.03125 C 5.398438 -0.914062 5.460938 -0.835938 5.546875 -0.796875 C 5.640625 -0.765625 5.753906 -0.75 5.890625 -0.75 L 5.984375 -0.75 L 5.984375 0 L 5.46875 0 C 5.175781 0 4.929688 -0.0625 4.734375 -0.1875 C 4.546875 -0.3125 4.425781 -0.515625 4.375 -0.796875 L 4.3125 -0.796875 C 4.082031 -0.460938 3.796875 -0.226562 3.453125 -0.09375 C 3.109375 0.0390625 2.757812 0.109375 2.40625 0.109375 Z M 2.640625 -0.71875 C 2.984375 -0.71875 3.285156 -0.800781 3.546875 -0.96875 C 3.804688 -1.144531 4.007812 -1.390625 4.15625 -1.703125 C 4.300781 -2.015625 4.375 -2.394531 4.375 -2.84375 L 2.828125 -2.53125 C 2.429688 -2.46875 2.128906 -2.363281 1.921875 -2.21875 C 1.722656 -2.082031 1.625 -1.867188 1.625 -1.578125 C 1.625 -1.367188 1.664062 -1.203125 1.75 -1.078125 C 1.84375 -0.953125 1.96875 -0.859375 2.125 -0.796875 C 2.28125 -0.742188 2.453125 -0.71875 2.640625 -0.71875 Z M 2.640625 -0.71875 "/></g></g></g><g fill="#cc5803" fill-opacity="1"><g transform="translate(203.724072, 254.850922)"><g/></g></g><g fill="#cc5803" fill-opacity="1"><g transform="translate(206.89301, 254.850922)"><g><path d="M 2.90625 0.109375 C 2.488281 0.109375 2.113281 0.0507812 1.78125 -0.0625 C 1.445312 -0.1875 1.175781 -0.367188 0.96875 -0.609375 C 0.757812 -0.859375 0.617188 -1.160156 0.546875 -1.515625 L 1.453125 -1.765625 C 1.523438 -1.410156 1.6875 -1.140625 1.9375 -0.953125 C 2.195312 -0.765625 2.515625 -0.671875 2.890625 -0.671875 C 3.085938 -0.671875 3.273438 -0.695312 3.453125 -0.75 C 3.628906 -0.800781 3.773438 -0.894531 3.890625 -1.03125 C 4.015625 -1.164062 4.070312 -1.34375 4.0625 -1.5625 C 4.0625 -1.738281 4.015625 -1.882812 3.921875 -2 C 3.828125 -2.113281 3.703125 -2.207031 3.546875 -2.28125 C 3.390625 -2.363281 3.207031 -2.429688 3 -2.484375 C 2.789062 -2.546875 2.566406 -2.613281 2.328125 -2.6875 C 2.128906 -2.75 1.929688 -2.816406 1.734375 -2.890625 C 1.546875 -2.972656 1.375 -3.070312 1.21875 -3.1875 C 1.0625 -3.300781 0.9375 -3.445312 0.84375 -3.625 C 0.757812 -3.8125 0.71875 -4.035156 0.71875 -4.296875 C 0.71875 -4.585938 0.769531 -4.835938 0.875 -5.046875 C 0.988281 -5.253906 1.140625 -5.425781 1.328125 -5.5625 C 1.523438 -5.695312 1.742188 -5.796875 1.984375 -5.859375 C 2.234375 -5.921875 2.5 -5.953125 2.78125 -5.953125 C 3.144531 -5.953125 3.476562 -5.898438 3.78125 -5.796875 C 4.09375 -5.691406 4.351562 -5.523438 4.5625 -5.296875 C 4.78125 -5.078125 4.921875 -4.789062 4.984375 -4.4375 L 4.078125 -4.21875 C 4.035156 -4.445312 3.953125 -4.632812 3.828125 -4.78125 C 3.703125 -4.925781 3.546875 -5.03125 3.359375 -5.09375 C 3.179688 -5.164062 2.992188 -5.203125 2.796875 -5.203125 C 2.617188 -5.203125 2.441406 -5.175781 2.265625 -5.125 C 2.097656 -5.070312 1.957031 -4.984375 1.84375 -4.859375 C 1.738281 -4.734375 1.6875 -4.570312 1.6875 -4.375 C 1.6875 -4.207031 1.722656 -4.070312 1.796875 -3.96875 C 1.878906 -3.863281 1.988281 -3.773438 2.125 -3.703125 C 2.257812 -3.640625 2.410156 -3.582031 2.578125 -3.53125 C 2.753906 -3.476562 2.9375 -3.429688 3.125 -3.390625 C 3.351562 -3.328125 3.582031 -3.253906 3.8125 -3.171875 C 4.039062 -3.097656 4.25 -2.992188 4.4375 -2.859375 C 4.625 -2.734375 4.773438 -2.566406 4.890625 -2.359375 C 5.003906 -2.160156 5.0625 -1.910156 5.0625 -1.609375 C 5.0625 -1.296875 5 -1.03125 4.875 -0.8125 C 4.757812 -0.59375 4.601562 -0.414062 4.40625 -0.28125 C 4.207031 -0.144531 3.976562 -0.046875 3.71875 0.015625 C 3.457031 0.078125 3.1875 0.109375 2.90625 0.109375 Z M 2.90625 0.109375 "/></g></g></g><g fill="#cc5803" fill-opacity="1"><g transform="translate(212.557789, 254.850922)"><g><path d="M 7.03125 -5.96875 C 7.394531 -5.96875 7.71875 -5.894531 8 -5.75 C 8.289062 -5.601562 8.515625 -5.390625 8.671875 -5.109375 C 8.835938 -4.835938 8.921875 -4.492188 8.921875 -4.078125 L 8.921875 0 L 7.890625 0 L 7.890625 -3.8125 C 7.890625 -4.113281 7.835938 -4.359375 7.734375 -4.546875 C 7.628906 -4.734375 7.488281 -4.867188 7.3125 -4.953125 C 7.144531 -5.046875 6.957031 -5.09375 6.75 -5.09375 C 6.519531 -5.09375 6.3125 -5.039062 6.125 -4.9375 C 5.9375 -4.84375 5.785156 -4.6875 5.671875 -4.46875 C 5.566406 -4.25 5.515625 -3.96875 5.515625 -3.625 L 5.515625 0 L 4.46875 0 L 4.46875 -3.765625 C 4.46875 -4.078125 4.414062 -4.332031 4.3125 -4.53125 C 4.207031 -4.726562 4.066406 -4.867188 3.890625 -4.953125 C 3.722656 -5.046875 3.53125 -5.09375 3.3125 -5.09375 C 3.082031 -5.09375 2.875 -5.039062 2.6875 -4.9375 C 2.5 -4.832031 2.347656 -4.671875 2.234375 -4.453125 C 2.128906 -4.234375 2.078125 -3.945312 2.078125 -3.59375 L 2.078125 0 L 1.046875 0 L 1.046875 -5.859375 L 2.078125 -5.859375 L 2.078125 -5.09375 C 2.242188 -5.375 2.460938 -5.585938 2.734375 -5.734375 C 3.015625 -5.890625 3.332031 -5.96875 3.6875 -5.96875 C 4.0625 -5.96875 4.390625 -5.882812 4.671875 -5.71875 C 4.960938 -5.5625 5.179688 -5.328125 5.328125 -5.015625 C 5.503906 -5.328125 5.738281 -5.5625 6.03125 -5.71875 C 6.332031 -5.882812 6.664062 -5.96875 7.03125 -5.96875 Z M 7.03125 -5.96875 "/></g></g></g><g fill="#cc5803" fill-opacity="1"><g transform="translate(222.422, 254.850922)"><g><path d="M 1.578125 -7.234375 C 1.441406 -7.234375 1.320312 -7.265625 1.21875 -7.328125 C 1.113281 -7.390625 1.03125 -7.472656 0.96875 -7.578125 C 0.90625 -7.679688 0.875 -7.800781 0.875 -7.9375 C 0.875 -8.0625 0.90625 -8.175781 0.96875 -8.28125 C 1.03125 -8.382812 1.113281 -8.46875 1.21875 -8.53125 C 1.320312 -8.59375 1.441406 -8.625 1.578125 -8.625 C 1.703125 -8.625 1.816406 -8.59375 1.921875 -8.53125 C 2.023438 -8.46875 2.109375 -8.382812 2.171875 -8.28125 C 2.234375 -8.175781 2.265625 -8.0625 2.265625 -7.9375 C 2.265625 -7.800781 2.234375 -7.679688 2.171875 -7.578125 C 2.109375 -7.472656 2.023438 -7.390625 1.921875 -7.328125 C 1.816406 -7.265625 1.703125 -7.234375 1.578125 -7.234375 Z M 1.046875 0 L 1.046875 -5.859375 L 2.078125 -5.859375 L 2.078125 0 Z M 1.046875 0 "/></g></g></g><g fill="#cc5803" fill-opacity="1"><g transform="translate(225.555198, 254.850922)"><g><path d="M 1.046875 0 L 1.046875 -9.15625 L 2.09375 -9.15625 L 2.09375 0 Z M 1.046875 0 "/></g></g></g><g fill="#cc5803" fill-opacity="1"><g transform="translate(228.694358, 254.850922)"><g><path d="M 6.171875 -3.046875 L 6.15625 -2.765625 L 1.578125 -2.765625 C 1.597656 -2.304688 1.691406 -1.925781 1.859375 -1.625 C 2.035156 -1.332031 2.265625 -1.113281 2.546875 -0.96875 C 2.828125 -0.820312 3.140625 -0.75 3.484375 -0.75 C 3.835938 -0.75 4.160156 -0.84375 4.453125 -1.03125 C 4.742188 -1.21875 4.96875 -1.472656 5.125 -1.796875 L 6.046875 -1.609375 C 5.910156 -1.253906 5.710938 -0.945312 5.453125 -0.6875 C 5.203125 -0.425781 4.910156 -0.222656 4.578125 -0.078125 C 4.242188 0.0546875 3.878906 0.125 3.484375 0.125 C 3.066406 0.125 2.675781 0.0546875 2.3125 -0.078125 C 1.957031 -0.222656 1.648438 -0.425781 1.390625 -0.6875 C 1.128906 -0.945312 0.925781 -1.265625 0.78125 -1.640625 C 0.644531 -2.015625 0.578125 -2.445312 0.578125 -2.9375 C 0.578125 -3.40625 0.648438 -3.828125 0.796875 -4.203125 C 0.941406 -4.585938 1.144531 -4.910156 1.40625 -5.171875 C 1.664062 -5.429688 1.96875 -5.628906 2.3125 -5.765625 C 2.664062 -5.898438 3.050781 -5.96875 3.46875 -5.96875 C 3.988281 -5.96875 4.453125 -5.859375 4.859375 -5.640625 C 5.265625 -5.429688 5.582031 -5.109375 5.8125 -4.671875 C 6.050781 -4.242188 6.171875 -3.703125 6.171875 -3.046875 Z M 3.46875 -5.171875 C 3.144531 -5.171875 2.859375 -5.113281 2.609375 -5 C 2.359375 -4.882812 2.144531 -4.707031 1.96875 -4.46875 C 1.800781 -4.226562 1.6875 -3.925781 1.625 -3.5625 L 5.140625 -3.5625 C 5.109375 -3.925781 5.015625 -4.226562 4.859375 -4.46875 C 4.710938 -4.707031 4.519531 -4.882812 4.28125 -5 C 4.039062 -5.113281 3.769531 -5.171875 3.46875 -5.171875 Z M 3.46875 -5.171875 "/></g></g></g><g fill="#cc5803" fill-opacity="1"><g transform="translate(94.831506, 235.493423)"><g><path d="M 4.609375 -0.625 C 4.066406 -0.101562 3.523438 0.0976562 2.984375 -0.015625 C 2.441406 -0.128906 1.972656 -0.425781 1.578125 -0.90625 C 1.191406 -1.382812 0.945312 -1.90625 0.84375 -2.46875 C 0.625 -3.550781 0.539062 -4.53125 0.59375 -5.40625 C 0.65625 -6.28125 0.675781 -7.269531 0.65625 -8.375 C 0.632812 -9.851562 0.597656 -11.320312 0.546875 -12.78125 C 0.503906 -14.238281 0.484375 -15.695312 0.484375 -17.15625 C 0.484375 -17.738281 0.503906 -18.328125 0.546875 -18.921875 C 0.597656 -19.515625 0.75 -20.050781 1 -20.53125 C 1.257812 -21.007812 1.707031 -21.367188 2.34375 -21.609375 C 3.207031 -21.929688 3.910156 -22.003906 4.453125 -21.828125 C 4.992188 -21.648438 5.398438 -21.3125 5.671875 -20.8125 C 5.941406 -20.320312 6.117188 -19.726562 6.203125 -19.03125 C 6.285156 -18.34375 6.316406 -17.625 6.296875 -16.875 C 6.273438 -16.125 6.226562 -15.414062 6.15625 -14.75 C 6.082031 -14.09375 6.023438 -13.550781 5.984375 -13.125 C 6.691406 -13.164062 7.394531 -13.171875 8.09375 -13.140625 C 8.800781 -13.109375 9.503906 -13.09375 10.203125 -13.09375 C 10.109375 -13.832031 10 -14.601562 9.875 -15.40625 C 9.75 -16.21875 9.671875 -17.03125 9.640625 -17.84375 C 9.617188 -18.65625 9.707031 -19.429688 9.90625 -20.171875 C 10.082031 -20.796875 10.414062 -21.367188 10.90625 -21.890625 C 11.40625 -22.410156 11.984375 -22.734375 12.640625 -22.859375 C 13.304688 -22.992188 13.941406 -22.800781 14.546875 -22.28125 C 14.921875 -21.976562 15.179688 -21.414062 15.328125 -20.59375 C 15.484375 -19.769531 15.566406 -18.796875 15.578125 -17.671875 C 15.585938 -16.546875 15.554688 -15.359375 15.484375 -14.109375 C 15.421875 -12.867188 15.332031 -11.660156 15.21875 -10.484375 C 15.101562 -9.316406 14.992188 -8.289062 14.890625 -7.40625 C 14.796875 -6.519531 14.726562 -5.867188 14.6875 -5.453125 C 14.664062 -5.148438 14.609375 -4.738281 14.515625 -4.21875 C 14.429688 -3.695312 14.300781 -3.175781 14.125 -2.65625 C 13.957031 -2.144531 13.738281 -1.707031 13.46875 -1.34375 C 13.195312 -0.988281 12.875 -0.816406 12.5 -0.828125 C 12.132812 -0.835938 11.710938 -1.113281 11.234375 -1.65625 C 10.710938 -2.257812 10.410156 -2.988281 10.328125 -3.84375 C 10.242188 -4.695312 10.25 -5.566406 10.34375 -6.453125 C 10.445312 -7.347656 10.507812 -8.140625 10.53125 -8.828125 C 10.175781 -8.785156 9.71875 -8.753906 9.15625 -8.734375 C 8.59375 -8.710938 8.039062 -8.671875 7.5 -8.609375 C 6.957031 -8.546875 6.535156 -8.425781 6.234375 -8.25 C 5.847656 -8.03125 5.664062 -7.703125 5.6875 -7.265625 C 5.707031 -6.835938 5.707031 -6.34375 5.6875 -5.78125 C 5.664062 -5.257812 5.65625 -4.671875 5.65625 -4.015625 C 5.65625 -3.367188 5.582031 -2.742188 5.4375 -2.140625 C 5.300781 -1.535156 5.023438 -1.03125 4.609375 -0.625 Z M 4.609375 -0.625 "/></g></g></g><g fill="#cc5803" fill-opacity="1"><g transform="translate(114.972686, 235.493423)"><g><path d="M 10.8125 -0.515625 C 9.882812 -0.171875 8.894531 0 7.84375 0 C 6.789062 0 5.820312 -0.191406 4.9375 -0.578125 C 3.832031 -1.078125 3.046875 -1.769531 2.578125 -2.65625 C 2.117188 -3.550781 1.722656 -4.539062 1.390625 -5.625 C 1.023438 -6.851562 0.757812 -8.144531 0.59375 -9.5 C 0.4375 -10.851562 0.460938 -12.15625 0.671875 -13.40625 C 0.890625 -14.664062 1.378906 -15.789062 2.140625 -16.78125 C 2.898438 -17.78125 4.003906 -18.539062 5.453125 -19.0625 C 6.972656 -19.601562 8.429688 -19.753906 9.828125 -19.515625 C 11.222656 -19.285156 12.414062 -18.6875 13.40625 -17.71875 C 14.40625 -16.757812 15.054688 -15.46875 15.359375 -13.84375 C 15.554688 -12.738281 15.660156 -11.519531 15.671875 -10.1875 C 15.679688 -8.851562 15.535156 -7.535156 15.234375 -6.234375 C 14.929688 -4.929688 14.421875 -3.765625 13.703125 -2.734375 C 12.992188 -1.710938 12.03125 -0.972656 10.8125 -0.515625 Z M 6.828125 -4.90625 C 7.453125 -4.28125 8.03125 -3.984375 8.5625 -4.015625 C 9.09375 -4.046875 9.550781 -4.289062 9.9375 -4.75 C 10.332031 -5.21875 10.613281 -5.769531 10.78125 -6.40625 C 10.894531 -6.8125 11 -7.359375 11.09375 -8.046875 C 11.1875 -8.742188 11.234375 -9.46875 11.234375 -10.21875 C 11.234375 -10.96875 11.132812 -11.648438 10.9375 -12.265625 C 10.75 -12.878906 10.425781 -13.316406 9.96875 -13.578125 C 9.519531 -13.835938 9.023438 -13.863281 8.484375 -13.65625 C 7.941406 -13.445312 7.453125 -13.132812 7.015625 -12.71875 C 6.578125 -12.3125 6.296875 -11.914062 6.171875 -11.53125 C 6.046875 -11.125 5.945312 -10.609375 5.875 -9.984375 C 5.8125 -9.367188 5.796875 -8.726562 5.828125 -8.0625 C 5.859375 -7.40625 5.945312 -6.796875 6.09375 -6.234375 C 6.25 -5.671875 6.492188 -5.226562 6.828125 -4.90625 Z M 6.828125 -4.90625 "/></g></g></g><g fill="#cc5803" fill-opacity="1"><g transform="translate(135.048898, 235.493423)"><g><path d="M 18.125 -0.15625 C 17.664062 -0.332031 17.332031 -0.625 17.125 -1.03125 C 16.925781 -1.445312 16.789062 -1.90625 16.71875 -2.40625 C 16.65625 -2.90625 16.613281 -3.347656 16.59375 -3.734375 C 16.507812 -4.953125 16.472656 -6.164062 16.484375 -7.375 C 16.492188 -8.582031 16.410156 -9.796875 16.234375 -11.015625 C 15.828125 -10.597656 15.359375 -10.097656 14.828125 -9.515625 C 14.296875 -8.929688 13.722656 -8.414062 13.109375 -7.96875 C 12.492188 -7.53125 11.859375 -7.332031 11.203125 -7.375 C 10.679688 -7.414062 10.21875 -7.609375 9.8125 -7.953125 C 9.414062 -8.304688 9.050781 -8.738281 8.71875 -9.25 C 8.382812 -9.769531 8.085938 -10.296875 7.828125 -10.828125 C 7.566406 -11.359375 7.316406 -11.8125 7.078125 -12.1875 C 6.710938 -11.363281 6.488281 -10.472656 6.40625 -9.515625 C 6.332031 -8.566406 6.285156 -7.601562 6.265625 -6.625 C 6.242188 -5.65625 6.144531 -4.703125 5.96875 -3.765625 C 5.800781 -2.835938 5.425781 -1.984375 4.84375 -1.203125 C 4.320312 -0.503906 3.710938 -0.15625 3.015625 -0.15625 C 2.328125 -0.15625 1.734375 -0.515625 1.234375 -1.234375 C 0.867188 -1.796875 0.644531 -2.410156 0.5625 -3.078125 C 0.488281 -3.753906 0.488281 -4.441406 0.5625 -5.140625 C 0.644531 -5.847656 0.71875 -6.503906 0.78125 -7.109375 C 0.90625 -8.410156 1.0625 -9.710938 1.25 -11.015625 C 1.4375 -12.316406 1.625 -13.601562 1.8125 -14.875 C 1.925781 -15.632812 2.046875 -16.445312 2.171875 -17.3125 C 2.304688 -18.175781 2.625 -18.925781 3.125 -19.5625 C 3.6875 -20.25 4.28125 -20.640625 4.90625 -20.734375 C 5.53125 -20.835938 6.160156 -20.734375 6.796875 -20.421875 C 7.441406 -20.109375 8.050781 -19.679688 8.625 -19.140625 C 9.195312 -18.597656 9.722656 -18.023438 10.203125 -17.421875 C 10.679688 -16.828125 11.070312 -16.304688 11.375 -15.859375 C 11.65625 -16.304688 12.007812 -16.835938 12.4375 -17.453125 C 12.875 -18.078125 13.359375 -18.679688 13.890625 -19.265625 C 14.421875 -19.847656 14.984375 -20.332031 15.578125 -20.71875 C 16.171875 -21.113281 16.785156 -21.316406 17.421875 -21.328125 C 18.066406 -21.335938 18.710938 -21.0625 19.359375 -20.5 C 19.773438 -20.15625 20.070312 -19.726562 20.25 -19.21875 C 20.4375 -18.707031 20.570312 -18.179688 20.65625 -17.640625 C 20.75 -17.097656 20.835938 -16.578125 20.921875 -16.078125 C 21.140625 -14.890625 21.320312 -13.691406 21.46875 -12.484375 C 21.625 -11.285156 21.722656 -10.082031 21.765625 -8.875 C 21.785156 -8.5625 21.800781 -8.101562 21.8125 -7.5 C 21.820312 -6.894531 21.804688 -6.222656 21.765625 -5.484375 C 21.722656 -4.753906 21.632812 -4.023438 21.5 -3.296875 C 21.375 -2.566406 21.175781 -1.921875 20.90625 -1.359375 C 20.632812 -0.796875 20.273438 -0.394531 19.828125 -0.15625 C 19.390625 0.0703125 18.820312 0.0703125 18.125 -0.15625 Z M 18.125 -0.15625 "/></g></g></g><g fill="#cc5803" fill-opacity="1"><g transform="translate(161.264661, 235.493423)"><g><path d="M 5.390625 -0.0625 C 4.960938 -0.0625 4.5 -0.046875 4 -0.015625 C 3.5 0.015625 3.015625 -0.015625 2.546875 -0.109375 C 2.085938 -0.210938 1.671875 -0.4375 1.296875 -0.78125 C 0.910156 -1.164062 0.671875 -1.628906 0.578125 -2.171875 C 0.492188 -2.710938 0.472656 -3.28125 0.515625 -3.875 C 0.554688 -4.476562 0.59375 -5.015625 0.625 -5.484375 C 0.664062 -6.421875 0.707031 -7.347656 0.75 -8.265625 C 0.789062 -9.179688 0.832031 -10.109375 0.875 -11.046875 C 0.914062 -12.128906 0.960938 -13.21875 1.015625 -14.3125 C 1.078125 -15.40625 1.117188 -16.492188 1.140625 -17.578125 C 1.179688 -18.179688 1.179688 -18.847656 1.140625 -19.578125 C 1.097656 -20.316406 1.179688 -20.976562 1.390625 -21.5625 C 1.585938 -22.101562 1.953125 -22.507812 2.484375 -22.78125 C 3.015625 -23.050781 3.632812 -23.222656 4.34375 -23.296875 C 5.0625 -23.378906 5.804688 -23.394531 6.578125 -23.34375 C 7.347656 -23.289062 8.070312 -23.210938 8.75 -23.109375 C 9.4375 -23.015625 9.992188 -22.9375 10.421875 -22.875 C 10.921875 -22.800781 11.394531 -22.695312 11.84375 -22.5625 C 12.300781 -22.4375 12.6875 -22.226562 13 -21.9375 C 13.320312 -21.644531 13.515625 -21.207031 13.578125 -20.625 C 13.660156 -20.019531 13.5625 -19.46875 13.28125 -18.96875 C 13 -18.46875 12.578125 -18.097656 12.015625 -17.859375 C 11.585938 -17.691406 11.15625 -17.640625 10.71875 -17.703125 C 10.28125 -17.765625 9.84375 -17.835938 9.40625 -17.921875 C 8.976562 -18.015625 8.5625 -18.007812 8.15625 -17.90625 C 7.894531 -17.851562 7.632812 -17.675781 7.375 -17.375 C 7.113281 -17.070312 6.96875 -16.734375 6.9375 -16.359375 C 6.90625 -15.992188 7.070312 -15.671875 7.4375 -15.390625 C 7.71875 -15.203125 8.117188 -15.117188 8.640625 -15.140625 C 9.160156 -15.160156 9.695312 -15.191406 10.25 -15.234375 C 10.800781 -15.273438 11.25 -15.234375 11.59375 -15.109375 C 12.15625 -14.890625 12.550781 -14.601562 12.78125 -14.25 C 13.007812 -13.90625 13.144531 -13.453125 13.1875 -12.890625 C 13.269531 -12.222656 13.203125 -11.546875 12.984375 -10.859375 C 12.773438 -10.179688 12.3125 -9.734375 11.59375 -9.515625 C 11.164062 -9.410156 10.703125 -9.414062 10.203125 -9.53125 C 9.703125 -9.65625 9.210938 -9.742188 8.734375 -9.796875 C 8.265625 -9.847656 7.84375 -9.703125 7.46875 -9.359375 C 7.019531 -8.921875 6.832031 -8.535156 6.90625 -8.203125 C 6.976562 -7.867188 7.207031 -7.582031 7.59375 -7.34375 C 7.988281 -7.101562 8.414062 -6.914062 8.875 -6.78125 C 9.34375 -6.65625 9.726562 -6.582031 10.03125 -6.5625 C 10.488281 -6.539062 10.988281 -6.546875 11.53125 -6.578125 C 12.070312 -6.609375 12.601562 -6.597656 13.125 -6.546875 C 13.644531 -6.492188 14.097656 -6.316406 14.484375 -6.015625 C 14.859375 -5.753906 15.09375 -5.382812 15.1875 -4.90625 C 15.28125 -4.425781 15.296875 -3.941406 15.234375 -3.453125 C 15.171875 -2.972656 15.070312 -2.546875 14.9375 -2.171875 C 14.613281 -1.367188 14.148438 -0.851562 13.546875 -0.625 C 12.941406 -0.40625 12.226562 -0.273438 11.40625 -0.234375 C 10.40625 -0.179688 9.40625 -0.148438 8.40625 -0.140625 C 7.414062 -0.128906 6.410156 -0.101562 5.390625 -0.0625 Z M 5.390625 -0.0625 "/></g></g></g><g fill="#cc5803" fill-opacity="1"><g transform="translate(180.918571, 235.493423)"><g/></g></g><g fill="#cc5803" fill-opacity="1"><g transform="translate(192.938643, 235.493423)"><g><path d="M 7.078125 -0.0625 C 6.148438 0.0195312 5.28125 -0.00390625 4.46875 -0.140625 C 3.65625 -0.285156 2.960938 -0.617188 2.390625 -1.140625 C 1.816406 -1.660156 1.410156 -2.414062 1.171875 -3.40625 C 0.890625 -4.625 0.71875 -5.890625 0.65625 -7.203125 C 0.601562 -8.523438 0.597656 -9.851562 0.640625 -11.1875 C 0.691406 -12.519531 0.695312 -13.804688 0.65625 -15.046875 C 0.632812 -15.710938 0.585938 -16.429688 0.515625 -17.203125 C 0.453125 -17.972656 0.457031 -18.734375 0.53125 -19.484375 C 0.613281 -20.242188 0.828125 -20.914062 1.171875 -21.5 C 1.492188 -22.039062 1.953125 -22.429688 2.546875 -22.671875 C 3.140625 -22.910156 3.789062 -23.0625 4.5 -23.125 C 5.207031 -23.1875 5.90625 -23.210938 6.59375 -23.203125 C 7.289062 -23.191406 7.910156 -23.1875 8.453125 -23.1875 C 9.160156 -23.207031 9.925781 -23.203125 10.75 -23.171875 C 11.570312 -23.140625 12.375 -23.03125 13.15625 -22.84375 C 13.9375 -22.664062 14.632812 -22.351562 15.25 -21.90625 C 15.863281 -21.46875 16.335938 -20.847656 16.671875 -20.046875 C 17.035156 -19.160156 17.113281 -18.25 16.90625 -17.3125 C 16.695312 -16.382812 16.320312 -15.507812 15.78125 -14.6875 C 15.238281 -13.863281 14.644531 -13.160156 14 -12.578125 C 14.78125 -11.835938 15.300781 -10.925781 15.5625 -9.84375 C 15.820312 -8.757812 15.859375 -7.660156 15.671875 -6.546875 C 15.484375 -5.429688 15.085938 -4.453125 14.484375 -3.609375 C 13.640625 -2.441406 12.539062 -1.597656 11.1875 -1.078125 C 9.832031 -0.554688 8.460938 -0.21875 7.078125 -0.0625 Z M 5.6875 -14.90625 C 5.75 -14.863281 5.925781 -14.84375 6.21875 -14.84375 C 6.507812 -14.84375 6.800781 -14.859375 7.09375 -14.890625 C 7.382812 -14.921875 7.566406 -14.9375 7.640625 -14.9375 C 8.085938 -14.976562 8.582031 -15.0625 9.125 -15.1875 C 9.664062 -15.320312 10.066406 -15.609375 10.328125 -16.046875 C 10.523438 -16.367188 10.507812 -16.648438 10.28125 -16.890625 C 10.050781 -17.128906 9.707031 -17.316406 9.25 -17.453125 C 8.800781 -17.597656 8.320312 -17.6875 7.8125 -17.71875 C 7.300781 -17.75 6.84375 -17.710938 6.4375 -17.609375 C 6.039062 -17.515625 5.789062 -17.34375 5.6875 -17.09375 C 5.664062 -17.039062 5.644531 -16.84375 5.625 -16.5 C 5.601562 -16.15625 5.597656 -15.8125 5.609375 -15.46875 C 5.617188 -15.132812 5.644531 -14.945312 5.6875 -14.90625 Z M 5.484375 -4.90625 C 6.003906 -4.96875 6.597656 -5.066406 7.265625 -5.203125 C 7.941406 -5.347656 8.550781 -5.585938 9.09375 -5.921875 C 9.632812 -6.265625 9.984375 -6.738281 10.140625 -7.34375 C 10.285156 -7.925781 10.210938 -8.363281 9.921875 -8.65625 C 9.628906 -8.945312 9.25 -9.140625 8.78125 -9.234375 C 8.320312 -9.335938 7.875 -9.378906 7.4375 -9.359375 C 6.957031 -9.335938 6.5625 -9.289062 6.25 -9.21875 C 5.9375 -9.15625 5.691406 -8.960938 5.515625 -8.640625 C 5.390625 -8.398438 5.332031 -8.039062 5.34375 -7.5625 C 5.351562 -7.09375 5.382812 -6.609375 5.4375 -6.109375 C 5.488281 -5.609375 5.503906 -5.207031 5.484375 -4.90625 Z M 5.484375 -4.90625 "/></g></g></g><g fill="#cc5803" fill-opacity="1"><g transform="translate(214.314225, 235.493423)"><g><path d="M 0.578125 -20.5 C 0.410156 -21.144531 0.445312 -21.789062 0.6875 -22.4375 C 0.925781 -23.09375 1.296875 -23.675781 1.796875 -24.1875 C 2.304688 -24.695312 2.878906 -25.035156 3.515625 -25.203125 C 3.765625 -25.273438 4.09375 -25.289062 4.5 -25.25 C 4.914062 -25.21875 5.328125 -25.117188 5.734375 -24.953125 C 6.148438 -24.796875 6.472656 -24.578125 6.703125 -24.296875 C 6.929688 -24.015625 6.984375 -23.671875 6.859375 -23.265625 C 7.066406 -22.609375 7.03125 -21.945312 6.75 -21.28125 C 6.46875 -20.625 6.046875 -20.050781 5.484375 -19.5625 C 4.921875 -19.082031 4.304688 -18.753906 3.640625 -18.578125 C 2.984375 -18.410156 2.375 -18.46875 1.8125 -18.75 C 1.25 -19.03125 0.835938 -19.613281 0.578125 -20.5 Z M 4.84375 -0.453125 C 4.125 0.046875 3.425781 0.144531 2.75 -0.15625 C 2.082031 -0.46875 1.578125 -0.976562 1.234375 -1.6875 C 0.910156 -2.382812 0.695312 -3.179688 0.59375 -4.078125 C 0.5 -4.972656 0.46875 -5.90625 0.5 -6.875 C 0.53125 -7.851562 0.585938 -8.804688 0.671875 -9.734375 C 0.765625 -10.671875 0.84375 -11.5 0.90625 -12.21875 C 0.945312 -12.664062 0.988281 -13.1875 1.03125 -13.78125 C 1.082031 -14.382812 1.179688 -14.976562 1.328125 -15.5625 C 1.484375 -16.144531 1.722656 -16.609375 2.046875 -16.953125 C 2.523438 -17.453125 3.023438 -17.6875 3.546875 -17.65625 C 4.066406 -17.625 4.554688 -17.425781 5.015625 -17.0625 C 5.484375 -16.707031 5.835938 -16.257812 6.078125 -15.71875 C 6.617188 -14.550781 6.925781 -13.242188 7 -11.796875 C 7.070312 -10.359375 7.007812 -8.914062 6.8125 -7.46875 C 6.625 -6.019531 6.410156 -4.6875 6.171875 -3.46875 C 6.066406 -2.925781 5.941406 -2.378906 5.796875 -1.828125 C 5.660156 -1.273438 5.34375 -0.816406 4.84375 -0.453125 Z M 4.84375 -0.453125 "/></g></g></g><g fill="#cc5803" fill-opacity="1"><g transform="translate(225.717094, 235.493423)"><g><path d="M 8.0625 0 C 7.425781 0 6.929688 -0.148438 6.578125 -0.453125 C 6.222656 -0.753906 5.960938 -1.148438 5.796875 -1.640625 C 5.640625 -2.128906 5.546875 -2.644531 5.515625 -3.1875 C 5.492188 -3.726562 5.492188 -4.222656 5.515625 -4.671875 C 5.585938 -6.492188 5.6875 -8.300781 5.8125 -10.09375 C 5.945312 -11.894531 5.976562 -13.71875 5.90625 -15.5625 C 5.320312 -15.539062 4.6875 -15.523438 4 -15.515625 C 3.320312 -15.503906 2.6875 -15.609375 2.09375 -15.828125 C 1.5 -16.054688 1.050781 -16.488281 0.75 -17.125 C 0.445312 -17.75 0.394531 -18.394531 0.59375 -19.0625 C 0.800781 -19.738281 1.234375 -20.21875 1.890625 -20.5 C 2.378906 -20.738281 3 -20.828125 3.75 -20.765625 C 4.5 -20.710938 5.253906 -20.625 6.015625 -20.5 C 6.785156 -20.382812 7.441406 -20.304688 7.984375 -20.265625 C 8.921875 -20.222656 9.90625 -20.210938 10.9375 -20.234375 C 11.976562 -20.253906 12.9375 -20.0625 13.8125 -19.65625 C 14.195312 -19.476562 14.523438 -19.203125 14.796875 -18.828125 C 15.066406 -18.460938 15.222656 -18.0625 15.265625 -17.625 C 15.304688 -17.195312 15.175781 -16.789062 14.875 -16.40625 C 14.59375 -16.039062 14.164062 -15.796875 13.59375 -15.671875 C 13.019531 -15.554688 12.421875 -15.503906 11.796875 -15.515625 C 11.179688 -15.523438 10.660156 -15.53125 10.234375 -15.53125 C 10.296875 -15.09375 10.398438 -14.410156 10.546875 -13.484375 C 10.703125 -12.566406 10.847656 -11.53125 10.984375 -10.375 C 11.128906 -9.21875 11.210938 -8.035156 11.234375 -6.828125 C 11.253906 -5.628906 11.175781 -4.515625 11 -3.484375 C 10.832031 -2.460938 10.515625 -1.628906 10.046875 -0.984375 C 9.585938 -0.347656 8.925781 -0.0195312 8.0625 0 Z M 8.0625 0 "/></g></g></g><g fill="#cc5803" fill-opacity="1"><g transform="translate(244.883738, 235.493423)"><g><path d="M 5.390625 -0.0625 C 4.960938 -0.0625 4.5 -0.046875 4 -0.015625 C 3.5 0.015625 3.015625 -0.015625 2.546875 -0.109375 C 2.085938 -0.210938 1.671875 -0.4375 1.296875 -0.78125 C 0.910156 -1.164062 0.671875 -1.628906 0.578125 -2.171875 C 0.492188 -2.710938 0.472656 -3.28125 0.515625 -3.875 C 0.554688 -4.476562 0.59375 -5.015625 0.625 -5.484375 C 0.664062 -6.421875 0.707031 -7.347656 0.75 -8.265625 C 0.789062 -9.179688 0.832031 -10.109375 0.875 -11.046875 C 0.914062 -12.128906 0.960938 -13.21875 1.015625 -14.3125 C 1.078125 -15.40625 1.117188 -16.492188 1.140625 -17.578125 C 1.179688 -18.179688 1.179688 -18.847656 1.140625 -19.578125 C 1.097656 -20.316406 1.179688 -20.976562 1.390625 -21.5625 C 1.585938 -22.101562 1.953125 -22.507812 2.484375 -22.78125 C 3.015625 -23.050781 3.632812 -23.222656 4.34375 -23.296875 C 5.0625 -23.378906 5.804688 -23.394531 6.578125 -23.34375 C 7.347656 -23.289062 8.070312 -23.210938 8.75 -23.109375 C 9.4375 -23.015625 9.992188 -22.9375 10.421875 -22.875 C 10.921875 -22.800781 11.394531 -22.695312 11.84375 -22.5625 C 12.300781 -22.4375 12.6875 -22.226562 13 -21.9375 C 13.320312 -21.644531 13.515625 -21.207031 13.578125 -20.625 C 13.660156 -20.019531 13.5625 -19.46875 13.28125 -18.96875 C 13 -18.46875 12.578125 -18.097656 12.015625 -17.859375 C 11.585938 -17.691406 11.15625 -17.640625 10.71875 -17.703125 C 10.28125 -17.765625 9.84375 -17.835938 9.40625 -17.921875 C 8.976562 -18.015625 8.5625 -18.007812 8.15625 -17.90625 C 7.894531 -17.851562 7.632812 -17.675781 7.375 -17.375 C 7.113281 -17.070312 6.96875 -16.734375 6.9375 -16.359375 C 6.90625 -15.992188 7.070312 -15.671875 7.4375 -15.390625 C 7.71875 -15.203125 8.117188 -15.117188 8.640625 -15.140625 C 9.160156 -15.160156 9.695312 -15.191406 10.25 -15.234375 C 10.800781 -15.273438 11.25 -15.234375 11.59375 -15.109375 C 12.15625 -14.890625 12.550781 -14.601562 12.78125 -14.25 C 13.007812 -13.90625 13.144531 -13.453125 13.1875 -12.890625 C 13.269531 -12.222656 13.203125 -11.546875 12.984375 -10.859375 C 12.773438 -10.179688 12.3125 -9.734375 11.59375 -9.515625 C 11.164062 -9.410156 10.703125 -9.414062 10.203125 -9.53125 C 9.703125 -9.65625 9.210938 -9.742188 8.734375 -9.796875 C 8.265625 -9.847656 7.84375 -9.703125 7.46875 -9.359375 C 7.019531 -8.921875 6.832031 -8.535156 6.90625 -8.203125 C 6.976562 -7.867188 7.207031 -7.582031 7.59375 -7.34375 C 7.988281 -7.101562 8.414062 -6.914062 8.875 -6.78125 C 9.34375 -6.65625 9.726562 -6.582031 10.03125 -6.5625 C 10.488281 -6.539062 10.988281 -6.546875 11.53125 -6.578125 C 12.070312 -6.609375 12.601562 -6.597656 13.125 -6.546875 C 13.644531 -6.492188 14.097656 -6.316406 14.484375 -6.015625 C 14.859375 -5.753906 15.09375 -5.382812 15.1875 -4.90625 C 15.28125 -4.425781 15.296875 -3.941406 15.234375 -3.453125 C 15.171875 -2.972656 15.070312 -2.546875 14.9375 -2.171875 C 14.613281 -1.367188 14.148438 -0.851562 13.546875 -0.625 C 12.941406 -0.40625 12.226562 -0.273438 11.40625 -0.234375 C 10.40625 -0.179688 9.40625 -0.148438 8.40625 -0.140625 C 7.414062 -0.128906 6.410156 -0.101562 5.390625 -0.0625 Z M 5.390625 -0.0625 "/></g></g></g><g fill="#cc5803" fill-opacity="1"><g transform="translate(264.537648, 235.493423)"><g><path d="M 5.421875 -0.1875 C 4.941406 -0.28125 4.410156 -0.382812 3.828125 -0.5 C 3.242188 -0.625 2.691406 -0.800781 2.171875 -1.03125 C 1.648438 -1.269531 1.238281 -1.609375 0.9375 -2.046875 C 0.53125 -2.648438 0.378906 -3.203125 0.484375 -3.703125 C 0.597656 -4.203125 0.882812 -4.601562 1.34375 -4.90625 C 1.8125 -5.207031 2.359375 -5.347656 2.984375 -5.328125 C 3.378906 -5.328125 3.8125 -5.238281 4.28125 -5.0625 C 4.757812 -4.894531 5.242188 -4.734375 5.734375 -4.578125 C 6.222656 -4.429688 6.679688 -4.394531 7.109375 -4.46875 C 7.546875 -4.539062 7.914062 -4.835938 8.21875 -5.359375 C 8.5625 -5.921875 8.609375 -6.421875 8.359375 -6.859375 C 8.109375 -7.304688 7.738281 -7.6875 7.25 -8 C 6.769531 -8.320312 6.320312 -8.578125 5.90625 -8.765625 C 4.257812 -9.566406 3.050781 -10.632812 2.28125 -11.96875 C 1.519531 -13.300781 1.269531 -14.898438 1.53125 -16.765625 C 1.789062 -18.628906 2.535156 -20.234375 3.765625 -21.578125 C 5.003906 -22.929688 6.507812 -23.859375 8.28125 -24.359375 C 9.144531 -24.617188 10.09375 -24.757812 11.125 -24.78125 C 12.15625 -24.800781 13.070312 -24.566406 13.875 -24.078125 C 14.320312 -23.796875 14.664062 -23.410156 14.90625 -22.921875 C 15.144531 -22.429688 15.203125 -21.953125 15.078125 -21.484375 C 14.960938 -21.023438 14.570312 -20.6875 13.90625 -20.46875 C 13.207031 -20.25 12.503906 -19.945312 11.796875 -19.5625 C 11.097656 -19.1875 10.476562 -18.75 9.9375 -18.25 C 9.394531 -17.757812 9.003906 -17.210938 8.765625 -16.609375 C 8.523438 -16.015625 8.503906 -15.390625 8.703125 -14.734375 C 8.898438 -14.085938 9.398438 -13.429688 10.203125 -12.765625 C 10.703125 -12.328125 11.207031 -11.929688 11.71875 -11.578125 C 12.238281 -11.222656 12.726562 -10.832031 13.1875 -10.40625 C 13.644531 -9.988281 14.015625 -9.453125 14.296875 -8.796875 C 14.660156 -7.992188 14.859375 -7.125 14.890625 -6.1875 C 14.921875 -5.25 14.765625 -4.367188 14.421875 -3.546875 C 14.054688 -2.648438 13.535156 -1.941406 12.859375 -1.421875 C 12.191406 -0.910156 11.441406 -0.546875 10.609375 -0.328125 C 9.773438 -0.109375 8.910156 0 8.015625 0 C 7.128906 0 6.265625 -0.0625 5.421875 -0.1875 Z M 5.421875 -0.1875 "/></g></g></g></svg>